<svg height="38" viewBox="0 0 38 38" width="38" xmlns="http://www.w3.org/2000/svg"><path d="M0 0h38v38H0z" fill="#002f5f"/><path d="M19 0a19 19 0 1019 19A19 19 0 0019 0zm9.543 15.4c.009.2.013.394.013.592A13.027 13.027 0 018.5 26.965a9.327 9.327 0 001.093.063 9.191 9.191 0 005.689-1.961A4.585 4.585 0 0111 21.886a4.572 4.572 0 002.068-.078A4.582 4.582 0 019.4 17.317v-.058a4.547 4.547 0 002.075.573 4.584 4.584 0 01-1.418-6.115A13 13 0 0019.5 16.5a4.583 4.583 0 017.8-4.175 9.179 9.179 0 002.908-1.112 4.6 4.6 0 01-2.008 2.534 9.144 9.144 0 002.63-.721 9.319 9.319 0 01-2.287 2.374z" fill="#fff"/></svg>