<svg xmlns="http://www.w3.org/2000/svg" width="16" height="16" viewBox="0 0 20 20"><circle cx="2.195" cy="2.195" r="2.195" transform="translate(0 15.611)" fill="#0f325a"/><path d="M9.736 17.947a6.715 6.715 0 00-.019-.14 9.432 9.432 0 00-.123-.611l-.037-.16a9.307 9.307 0 00-.206-.69l-.018-.056a9.142 9.142 0 00-7.488-6.036 1.257 1.257 0 00-1.122 1.254 1.266 1.266 0 001.085 1.237 6.628 6.628 0 015.437 5.444v.019a1.261 1.261 0 001.12 1.062h.322a1.232 1.232 0 001.049-1.323z" fill="#0f325a"/><path d="M14.966 17.936A14.326 14.326 0 001.796 5.042 1.258 1.258 0 00.722 6.286a1.245 1.245 0 001.127 1.24 11.822 11.822 0 0110.623 10.647 1.233 1.233 0 001.123 1.1h.323a1.249 1.249 0 001.048-1.337z" fill="#0f325a"/><path d="M20 18.16c-.009-.154-.01-.31-.022-.463a18.713 18.713 0 00-.126-1.07c-.034-.25-.065-.5-.11-.748a18.868 18.868 0 00-.248-1.143c-.05-.207-.1-.414-.152-.618a17.864 17.864 0 00-.385-1.2c-.058-.165-.111-.331-.173-.493a19.46 19.46 0 00-.533-1.25c-.058-.124-.112-.251-.172-.375-.214-.435-.447-.86-.691-1.276-.053-.089-.1-.181-.156-.27q-.4-.658-.856-1.281c-.042-.058-.081-.119-.125-.176q-.483-.653-1.022-1.262l-.084-.1q-.566-.635-1.186-1.219l-.04-.038A19.239 19.239 0 001.742.004a1.256 1.256 0 00-1.021 1.23 1.24 1.24 0 001.143 1.244A16.775 16.775 0 0113.3 8.129l.028.033q.491.555.932 1.153c.025.034.048.069.073.1.274.378.534.765.777 1.166.038.062.072.125.109.188.222.377.432.761.625 1.156.047.094.087.191.132.287.172.369.334.743.479 1.126.05.13.093.264.14.4.124.355.241.713.342 1.078.047.17.085.342.127.515.081.337.158.673.219 1.017.037.21.063.424.094.636.043.313.084.626.109.945.007.079.022.155.028.234a1.232 1.232 0 001.012 1.122h.436A1.255 1.255 0 0020 18.16z" fill="#0f325a"/></svg>